<mxfile host="app.diagrams.net" modified="2021-03-17T05:25:13.920Z" agent="5.0 (Windows NT 10.0; Win64; x64) AppleWebKit/537.36 (KHTML, like Gecko) Chrome/89.0.4389.90 Safari/537.36 Edg/89.0.774.54" etag="_JgQdywSqSl04WoUYvRI" version="14.4.8" type="github">
  <diagram id="YESWJ_fVVs4A_5K_BiSB" name="Page-1">
    <mxGraphModel dx="1185" dy="662" grid="1" gridSize="10" guides="1" tooltips="1" connect="1" arrows="1" fold="1" page="1" pageScale="1" pageWidth="1654" pageHeight="2336" math="0" shadow="0">
      <root>
        <mxCell id="0" />
        <mxCell id="1" parent="0" />
        <mxCell id="D48idRP4d6Q90apuaHvB-8" style="edgeStyle=orthogonalEdgeStyle;rounded=0;orthogonalLoop=1;jettySize=auto;html=1;exitX=0.5;exitY=1;exitDx=0;exitDy=0;entryX=0.05;entryY=-0.08;entryDx=0;entryDy=0;entryPerimeter=0;" parent="1" source="D48idRP4d6Q90apuaHvB-1" target="D48idRP4d6Q90apuaHvB-5" edge="1">
          <mxGeometry relative="1" as="geometry" />
        </mxCell>
        <mxCell id="D48idRP4d6Q90apuaHvB-1" value="PC" style="rounded=1;whiteSpace=wrap;html=1;" parent="1" vertex="1">
          <mxGeometry x="170" y="90" width="70" height="30" as="geometry" />
        </mxCell>
        <mxCell id="D48idRP4d6Q90apuaHvB-9" style="edgeStyle=orthogonalEdgeStyle;rounded=0;orthogonalLoop=1;jettySize=auto;html=1;exitX=0.5;exitY=1;exitDx=0;exitDy=0;entryX=0.5;entryY=0;entryDx=0;entryDy=0;" parent="1" source="D48idRP4d6Q90apuaHvB-18" target="D48idRP4d6Q90apuaHvB-5" edge="1">
          <mxGeometry relative="1" as="geometry" />
        </mxCell>
        <mxCell id="D48idRP4d6Q90apuaHvB-3" value="手机" style="rounded=1;whiteSpace=wrap;html=1;" parent="1" vertex="1">
          <mxGeometry x="250" y="90" width="70" height="30" as="geometry" />
        </mxCell>
        <mxCell id="D48idRP4d6Q90apuaHvB-10" style="edgeStyle=orthogonalEdgeStyle;rounded=0;orthogonalLoop=1;jettySize=auto;html=1;exitX=0.5;exitY=1;exitDx=0;exitDy=0;entryX=0.928;entryY=-0.04;entryDx=0;entryDy=0;entryPerimeter=0;" parent="1" source="D48idRP4d6Q90apuaHvB-4" target="D48idRP4d6Q90apuaHvB-5" edge="1">
          <mxGeometry relative="1" as="geometry" />
        </mxCell>
        <mxCell id="D48idRP4d6Q90apuaHvB-4" value="其他" style="rounded=1;whiteSpace=wrap;html=1;" parent="1" vertex="1">
          <mxGeometry x="330" y="90" width="70" height="30" as="geometry" />
        </mxCell>
        <mxCell id="D48idRP4d6Q90apuaHvB-21" style="edgeStyle=orthogonalEdgeStyle;rounded=0;orthogonalLoop=1;jettySize=auto;html=1;exitX=0.5;exitY=1;exitDx=0;exitDy=0;entryX=0.5;entryY=0;entryDx=0;entryDy=0;" parent="1" source="D48idRP4d6Q90apuaHvB-5" target="D48idRP4d6Q90apuaHvB-20" edge="1">
          <mxGeometry relative="1" as="geometry" />
        </mxCell>
        <mxCell id="D48idRP4d6Q90apuaHvB-5" value="输入账户、密码、验证码" style="rounded=0;whiteSpace=wrap;html=1;" parent="1" vertex="1">
          <mxGeometry x="195" y="160" width="180" height="30" as="geometry" />
        </mxCell>
        <mxCell id="D48idRP4d6Q90apuaHvB-12" style="edgeStyle=orthogonalEdgeStyle;rounded=0;orthogonalLoop=1;jettySize=auto;html=1;exitX=0.5;exitY=1;exitDx=0;exitDy=0;entryX=0.5;entryY=0;entryDx=0;entryDy=0;" parent="1" source="D48idRP4d6Q90apuaHvB-11" target="D48idRP4d6Q90apuaHvB-1" edge="1">
          <mxGeometry relative="1" as="geometry" />
        </mxCell>
        <mxCell id="D48idRP4d6Q90apuaHvB-13" style="edgeStyle=orthogonalEdgeStyle;rounded=0;orthogonalLoop=1;jettySize=auto;html=1;exitX=0.5;exitY=1;exitDx=0;exitDy=0;entryX=0.614;entryY=-0.1;entryDx=0;entryDy=0;entryPerimeter=0;" parent="1" source="D48idRP4d6Q90apuaHvB-11" target="D48idRP4d6Q90apuaHvB-3" edge="1">
          <mxGeometry relative="1" as="geometry" />
        </mxCell>
        <mxCell id="D48idRP4d6Q90apuaHvB-14" style="edgeStyle=orthogonalEdgeStyle;rounded=0;orthogonalLoop=1;jettySize=auto;html=1;exitX=0.5;exitY=1;exitDx=0;exitDy=0;entryX=0.5;entryY=0;entryDx=0;entryDy=0;" parent="1" source="D48idRP4d6Q90apuaHvB-11" target="D48idRP4d6Q90apuaHvB-4" edge="1">
          <mxGeometry relative="1" as="geometry" />
        </mxCell>
        <mxCell id="D48idRP4d6Q90apuaHvB-11" value="" style="shape=actor;whiteSpace=wrap;html=1;" parent="1" vertex="1">
          <mxGeometry x="280" y="10" width="20" height="30" as="geometry" />
        </mxCell>
        <mxCell id="D48idRP4d6Q90apuaHvB-16" value="用户" style="text;html=1;align=center;verticalAlign=middle;resizable=0;points=[];autosize=1;" parent="1" vertex="1">
          <mxGeometry x="310" y="20" width="40" height="20" as="geometry" />
        </mxCell>
        <mxCell id="D48idRP4d6Q90apuaHvB-18" value="进&amp;nbsp; 入&amp;nbsp; 系&amp;nbsp; 统&amp;nbsp; 登&amp;nbsp; 录" style="text;html=1;align=center;verticalAlign=middle;resizable=0;points=[];autosize=1;" parent="1" vertex="1">
          <mxGeometry x="225" y="130" width="120" height="20" as="geometry" />
        </mxCell>
        <mxCell id="D48idRP4d6Q90apuaHvB-19" style="edgeStyle=orthogonalEdgeStyle;rounded=0;orthogonalLoop=1;jettySize=auto;html=1;exitX=0.5;exitY=1;exitDx=0;exitDy=0;entryX=0.5;entryY=0;entryDx=0;entryDy=0;" parent="1" source="D48idRP4d6Q90apuaHvB-3" target="D48idRP4d6Q90apuaHvB-18" edge="1">
          <mxGeometry relative="1" as="geometry">
            <mxPoint x="285" y="120" as="sourcePoint" />
            <mxPoint x="285" y="160" as="targetPoint" />
          </mxGeometry>
        </mxCell>
        <mxCell id="RMrvw5dMMkh8_IedU6CL-13" style="edgeStyle=orthogonalEdgeStyle;rounded=0;orthogonalLoop=1;jettySize=auto;html=1;exitX=1;exitY=0.5;exitDx=0;exitDy=0;" edge="1" parent="1" source="D48idRP4d6Q90apuaHvB-20">
          <mxGeometry relative="1" as="geometry">
            <mxPoint x="370" y="235" as="targetPoint" />
          </mxGeometry>
        </mxCell>
        <mxCell id="RMrvw5dMMkh8_IedU6CL-25" style="edgeStyle=none;rounded=0;orthogonalLoop=1;jettySize=auto;html=1;exitX=0.5;exitY=1;exitDx=0;exitDy=0;entryX=0.444;entryY=0.017;entryDx=0;entryDy=0;entryPerimeter=0;" edge="1" parent="1" source="D48idRP4d6Q90apuaHvB-20" target="RMrvw5dMMkh8_IedU6CL-8">
          <mxGeometry relative="1" as="geometry" />
        </mxCell>
        <mxCell id="RMrvw5dMMkh8_IedU6CL-39" style="edgeStyle=none;rounded=0;orthogonalLoop=1;jettySize=auto;html=1;entryX=0;entryY=0.5;entryDx=0;entryDy=0;fontColor=#FF3333;" edge="1" parent="1" target="RMrvw5dMMkh8_IedU6CL-38">
          <mxGeometry relative="1" as="geometry">
            <mxPoint x="290" y="300" as="sourcePoint" />
            <Array as="points" />
          </mxGeometry>
        </mxCell>
        <mxCell id="RMrvw5dMMkh8_IedU6CL-41" value="&lt;span style=&quot;color: rgb(0 , 0 , 0) ; font-size: 12px ; background-color: rgb(248 , 249 , 250)&quot;&gt;根据用户的不同角色&lt;/span&gt;&lt;br style=&quot;color: rgb(0 , 0 , 0) ; font-size: 12px ; background-color: rgb(248 , 249 , 250)&quot;&gt;&lt;span style=&quot;color: rgb(0 , 0 , 0) ; font-size: 12px ; background-color: rgb(248 , 249 , 250)&quot;&gt;展示不同的系统首页&lt;/span&gt;" style="edgeLabel;html=1;align=center;verticalAlign=middle;resizable=0;points=[];fontColor=#FF3333;" vertex="1" connectable="0" parent="RMrvw5dMMkh8_IedU6CL-39">
          <mxGeometry x="-0.045" y="1" relative="1" as="geometry">
            <mxPoint as="offset" />
          </mxGeometry>
        </mxCell>
        <mxCell id="D48idRP4d6Q90apuaHvB-20" value="点击登录按钮" style="rounded=1;whiteSpace=wrap;html=1;" parent="1" vertex="1">
          <mxGeometry x="240" y="220" width="100" height="30" as="geometry" />
        </mxCell>
        <mxCell id="RMrvw5dMMkh8_IedU6CL-8" value="登录日志记录" style="rounded=1;whiteSpace=wrap;html=1;" vertex="1" parent="1">
          <mxGeometry x="250" y="320" width="90" height="30" as="geometry" />
        </mxCell>
        <mxCell id="D48idRP4d6Q90apuaHvB-26" value="成功" style="text;html=1;align=center;verticalAlign=middle;resizable=0;points=[];autosize=1;fillColor=#d5e8d4;strokeColor=#82b366;" parent="1" vertex="1">
          <mxGeometry x="290" y="270" width="40" height="20" as="geometry" />
        </mxCell>
        <mxCell id="RMrvw5dMMkh8_IedU6CL-29" style="edgeStyle=none;rounded=0;orthogonalLoop=1;jettySize=auto;html=1;exitX=1;exitY=0.5;exitDx=0;exitDy=0;" edge="1" parent="1" source="RMrvw5dMMkh8_IedU6CL-27">
          <mxGeometry relative="1" as="geometry">
            <mxPoint x="510" y="234.9999999999999" as="targetPoint" />
          </mxGeometry>
        </mxCell>
        <mxCell id="RMrvw5dMMkh8_IedU6CL-27" value="&lt;span style=&quot;color: rgb(255 , 51 , 51)&quot;&gt;账号、密码、&lt;/span&gt;&lt;br style=&quot;color: rgb(255 , 51 , 51)&quot;&gt;&lt;span style=&quot;color: rgb(255 , 51 , 51)&quot;&gt;验证码错误&lt;/span&gt;" style="rounded=1;whiteSpace=wrap;html=1;" vertex="1" parent="1">
          <mxGeometry x="375" y="220" width="85" height="30" as="geometry" />
        </mxCell>
        <mxCell id="RMrvw5dMMkh8_IedU6CL-33" style="edgeStyle=none;rounded=0;orthogonalLoop=1;jettySize=auto;html=1;exitX=1;exitY=0.5;exitDx=0;exitDy=0;" edge="1" parent="1" target="RMrvw5dMMkh8_IedU6CL-32">
          <mxGeometry relative="1" as="geometry">
            <mxPoint x="570" y="234.9999999999999" as="sourcePoint" />
          </mxGeometry>
        </mxCell>
        <mxCell id="RMrvw5dMMkh8_IedU6CL-34" value="连续大于5次" style="edgeLabel;html=1;align=center;verticalAlign=middle;resizable=0;points=[];fontColor=#FF3333;" vertex="1" connectable="0" parent="RMrvw5dMMkh8_IedU6CL-33">
          <mxGeometry x="-0.3056" y="-1" relative="1" as="geometry">
            <mxPoint x="11.67" y="-1" as="offset" />
          </mxGeometry>
        </mxCell>
        <mxCell id="RMrvw5dMMkh8_IedU6CL-35" style="edgeStyle=none;rounded=0;orthogonalLoop=1;jettySize=auto;html=1;exitX=0.5;exitY=0;exitDx=0;exitDy=0;entryX=1;entryY=0.5;entryDx=0;entryDy=0;" edge="1" parent="1" target="D48idRP4d6Q90apuaHvB-5">
          <mxGeometry relative="1" as="geometry">
            <mxPoint x="540" y="214.9999999999999" as="sourcePoint" />
            <Array as="points">
              <mxPoint x="540" y="175" />
            </Array>
          </mxGeometry>
        </mxCell>
        <mxCell id="RMrvw5dMMkh8_IedU6CL-36" value="小于5次输入" style="edgeLabel;html=1;align=center;verticalAlign=middle;resizable=0;points=[];" vertex="1" connectable="0" parent="RMrvw5dMMkh8_IedU6CL-35">
          <mxGeometry x="0.3496" y="1" relative="1" as="geometry">
            <mxPoint x="18.33" y="-1" as="offset" />
          </mxGeometry>
        </mxCell>
        <mxCell id="RMrvw5dMMkh8_IedU6CL-32" value="锁定账户&lt;br&gt;禁止登录&lt;br&gt;联系管理员" style="rounded=1;whiteSpace=wrap;html=1;fillColor=#f8cecc;strokeColor=#b85450;" vertex="1" parent="1">
          <mxGeometry x="710" y="212.5" width="90" height="45" as="geometry" />
        </mxCell>
        <mxCell id="RMrvw5dMMkh8_IedU6CL-37" value="次数判定" style="rhombus;whiteSpace=wrap;html=1;fontColor=#FF3333;" vertex="1" parent="1">
          <mxGeometry x="510" y="216.25" width="66" height="37.5" as="geometry" />
        </mxCell>
        <mxCell id="RMrvw5dMMkh8_IedU6CL-38" value="&lt;font color=&quot;#000000&quot;&gt;系统首页&lt;/font&gt;" style="shape=process;whiteSpace=wrap;html=1;backgroundOutline=1;fontColor=#FF3333;" vertex="1" parent="1">
          <mxGeometry x="590" y="270" width="120" height="60" as="geometry" />
        </mxCell>
        <mxCell id="RMrvw5dMMkh8_IedU6CL-42" value="&lt;b&gt;&lt;font style=&quot;font-size: 24px&quot;&gt;登录操作&lt;/font&gt;&lt;/b&gt;" style="text;html=1;align=center;verticalAlign=middle;resizable=0;points=[];autosize=1;fontColor=#FF3333;" vertex="1" parent="1">
          <mxGeometry x="10" y="196.25" width="110" height="20" as="geometry" />
        </mxCell>
        <mxCell id="RMrvw5dMMkh8_IedU6CL-47" style="edgeStyle=none;rounded=0;orthogonalLoop=1;jettySize=auto;html=1;exitX=0.9;exitY=0.5;exitDx=0;exitDy=0;entryX=0;entryY=0.5;entryDx=0;entryDy=0;fontColor=#FF3333;exitPerimeter=0;" edge="1" parent="1" source="RMrvw5dMMkh8_IedU6CL-44" target="RMrvw5dMMkh8_IedU6CL-46">
          <mxGeometry relative="1" as="geometry" />
        </mxCell>
        <mxCell id="RMrvw5dMMkh8_IedU6CL-58" style="edgeStyle=none;rounded=0;orthogonalLoop=1;jettySize=auto;html=1;exitX=0.5;exitY=1;exitDx=0;exitDy=0;fontColor=#FF3333;entryX=0;entryY=0.75;entryDx=0;entryDy=0;fillColor=#dae8fc;strokeColor=#6c8ebf;" edge="1" parent="1" source="RMrvw5dMMkh8_IedU6CL-44" target="RMrvw5dMMkh8_IedU6CL-76">
          <mxGeometry relative="1" as="geometry">
            <mxPoint x="160" y="568" as="sourcePoint" />
            <mxPoint x="370" y="629.3704972245189" as="targetPoint" />
            <Array as="points" />
          </mxGeometry>
        </mxCell>
        <mxCell id="RMrvw5dMMkh8_IedU6CL-59" value="手动录入&lt;br&gt;客户信息" style="edgeLabel;html=1;align=center;verticalAlign=middle;resizable=0;points=[];fontColor=#FF3333;" vertex="1" connectable="0" parent="RMrvw5dMMkh8_IedU6CL-58">
          <mxGeometry x="-0.2157" relative="1" as="geometry">
            <mxPoint x="11.209999999999999" y="6.670000000000002" as="offset" />
          </mxGeometry>
        </mxCell>
        <mxCell id="RMrvw5dMMkh8_IedU6CL-72" style="edgeStyle=none;rounded=0;orthogonalLoop=1;jettySize=auto;html=1;exitX=0.5;exitY=0;exitDx=0;exitDy=0;fontColor=#000000;" edge="1" parent="1" source="RMrvw5dMMkh8_IedU6CL-44">
          <mxGeometry relative="1" as="geometry">
            <mxPoint x="160" y="490" as="targetPoint" />
          </mxGeometry>
        </mxCell>
        <mxCell id="RMrvw5dMMkh8_IedU6CL-152" style="edgeStyle=none;rounded=0;orthogonalLoop=1;jettySize=auto;html=1;exitX=0.25;exitY=1;exitDx=0;exitDy=0;entryX=0.286;entryY=-0.05;entryDx=0;entryDy=0;entryPerimeter=0;fontColor=#000000;" edge="1" parent="1" source="RMrvw5dMMkh8_IedU6CL-44" target="RMrvw5dMMkh8_IedU6CL-84">
          <mxGeometry relative="1" as="geometry">
            <Array as="points">
              <mxPoint x="154" y="973" />
            </Array>
          </mxGeometry>
        </mxCell>
        <mxCell id="RMrvw5dMMkh8_IedU6CL-44" value="" style="shape=actor;whiteSpace=wrap;html=1;fontColor=#FF3333;" vertex="1" parent="1">
          <mxGeometry x="147.5" y="539" width="25" height="30" as="geometry" />
        </mxCell>
        <mxCell id="RMrvw5dMMkh8_IedU6CL-45" value="网络客服" style="text;html=1;align=center;verticalAlign=middle;resizable=0;points=[];autosize=1;fontColor=#FF3333;" vertex="1" parent="1">
          <mxGeometry x="80" y="549" width="60" height="20" as="geometry" />
        </mxCell>
        <mxCell id="RMrvw5dMMkh8_IedU6CL-78" style="edgeStyle=none;rounded=0;orthogonalLoop=1;jettySize=auto;html=1;exitX=0.5;exitY=1;exitDx=0;exitDy=0;entryX=0.5;entryY=0;entryDx=0;entryDy=0;fontColor=#000000;" edge="1" parent="1" source="RMrvw5dMMkh8_IedU6CL-54" target="RMrvw5dMMkh8_IedU6CL-76">
          <mxGeometry relative="1" as="geometry" />
        </mxCell>
        <mxCell id="RMrvw5dMMkh8_IedU6CL-46" value="&lt;font color=&quot;#000000&quot;&gt;商务通平台&lt;/font&gt;" style="shape=trapezoid;perimeter=trapezoidPerimeter;whiteSpace=wrap;html=1;fixedSize=1;fontColor=#FF3333;" vertex="1" parent="1">
          <mxGeometry x="260" y="539" width="80" height="30" as="geometry" />
        </mxCell>
        <mxCell id="RMrvw5dMMkh8_IedU6CL-48" value="&lt;font color=&quot;#000000&quot;&gt;商务通聊天&lt;/font&gt;" style="text;html=1;align=center;verticalAlign=middle;resizable=0;points=[];autosize=1;fontColor=#FF3333;" vertex="1" parent="1">
          <mxGeometry x="181" y="539" width="80" height="20" as="geometry" />
        </mxCell>
        <mxCell id="RMrvw5dMMkh8_IedU6CL-61" value="信息接收人" style="rounded=1;whiteSpace=wrap;html=1;fontColor=#FF3333;" vertex="1" parent="1">
          <mxGeometry x="120" y="457" width="90" height="35" as="geometry" />
        </mxCell>
        <mxCell id="RMrvw5dMMkh8_IedU6CL-68" style="edgeStyle=none;rounded=0;orthogonalLoop=1;jettySize=auto;html=1;entryX=1;entryY=0.25;entryDx=0;entryDy=0;fontColor=#FF3333;" edge="1" parent="1" target="RMrvw5dMMkh8_IedU6CL-67">
          <mxGeometry relative="1" as="geometry">
            <mxPoint x="299" y="832" as="sourcePoint" />
          </mxGeometry>
        </mxCell>
        <mxCell id="RMrvw5dMMkh8_IedU6CL-82" style="edgeStyle=none;rounded=0;orthogonalLoop=1;jettySize=auto;html=1;exitX=0.5;exitY=1;exitDx=0;exitDy=0;entryX=1;entryY=0.75;entryDx=0;entryDy=0;fontColor=#000000;" edge="1" parent="1" source="RMrvw5dMMkh8_IedU6CL-64" target="RMrvw5dMMkh8_IedU6CL-80">
          <mxGeometry relative="1" as="geometry">
            <Array as="points">
              <mxPoint x="305" y="966" />
            </Array>
          </mxGeometry>
        </mxCell>
        <mxCell id="RMrvw5dMMkh8_IedU6CL-88" style="edgeStyle=none;rounded=0;orthogonalLoop=1;jettySize=auto;html=1;exitX=1;exitY=0.75;exitDx=0;exitDy=0;entryX=0.1;entryY=0.5;entryDx=0;entryDy=0;entryPerimeter=0;fontColor=#000000;" edge="1" parent="1" source="RMrvw5dMMkh8_IedU6CL-64" target="RMrvw5dMMkh8_IedU6CL-80">
          <mxGeometry relative="1" as="geometry" />
        </mxCell>
        <mxCell id="RMrvw5dMMkh8_IedU6CL-89" value="网络分配" style="edgeLabel;html=1;align=center;verticalAlign=middle;resizable=0;points=[];fontColor=#000000;" vertex="1" connectable="0" parent="RMrvw5dMMkh8_IedU6CL-88">
          <mxGeometry x="-0.1943" y="-1" relative="1" as="geometry">
            <mxPoint x="-0.36" as="offset" />
          </mxGeometry>
        </mxCell>
        <mxCell id="RMrvw5dMMkh8_IedU6CL-64" value="" style="shape=actor;whiteSpace=wrap;html=1;fontColor=#FF3333;" vertex="1" parent="1">
          <mxGeometry x="292.5" y="822" width="25" height="30" as="geometry" />
        </mxCell>
        <mxCell id="RMrvw5dMMkh8_IedU6CL-65" value="邀约师" style="text;html=1;align=center;verticalAlign=middle;resizable=0;points=[];autosize=1;fontColor=#FF3333;" vertex="1" parent="1">
          <mxGeometry x="280" y="802" width="50" height="20" as="geometry" />
        </mxCell>
        <mxCell id="RMrvw5dMMkh8_IedU6CL-70" style="edgeStyle=none;rounded=0;orthogonalLoop=1;jettySize=auto;html=1;exitX=0.5;exitY=1;exitDx=0;exitDy=0;fontColor=#000000;entryX=0.5;entryY=0;entryDx=0;entryDy=0;" edge="1" parent="1" source="RMrvw5dMMkh8_IedU6CL-71" target="RMrvw5dMMkh8_IedU6CL-80">
          <mxGeometry relative="1" as="geometry">
            <mxPoint x="132.69230769230785" y="902" as="targetPoint" />
          </mxGeometry>
        </mxCell>
        <mxCell id="RMrvw5dMMkh8_IedU6CL-67" value="&lt;font color=&quot;#000000&quot;&gt;慧呼云平台&lt;/font&gt;" style="shape=trapezoid;perimeter=trapezoidPerimeter;whiteSpace=wrap;html=1;fixedSize=1;fontColor=#FF3333;" vertex="1" parent="1">
          <mxGeometry x="399.5" y="822" width="80" height="30" as="geometry" />
        </mxCell>
        <mxCell id="RMrvw5dMMkh8_IedU6CL-69" value="拨打电话" style="text;html=1;align=center;verticalAlign=middle;resizable=0;points=[];autosize=1;" vertex="1" parent="1">
          <mxGeometry x="331.5" y="812" width="60" height="20" as="geometry" />
        </mxCell>
        <mxCell id="RMrvw5dMMkh8_IedU6CL-73" value="录入" style="text;html=1;align=center;verticalAlign=middle;resizable=0;points=[];autosize=1;fillColor=#d5e8d4;strokeColor=#82b366;" vertex="1" parent="1">
          <mxGeometry x="140" y="508" width="40" height="20" as="geometry" />
        </mxCell>
        <mxCell id="RMrvw5dMMkh8_IedU6CL-75" value="手动拓展" style="text;html=1;align=center;verticalAlign=middle;resizable=0;points=[];autosize=1;fillColor=#d5e8d4;strokeColor=#82b366;" vertex="1" parent="1">
          <mxGeometry x="280" y="903" width="60" height="20" as="geometry" />
        </mxCell>
        <mxCell id="RMrvw5dMMkh8_IedU6CL-110" style="edgeStyle=none;rounded=0;orthogonalLoop=1;jettySize=auto;html=1;exitX=0.5;exitY=1;exitDx=0;exitDy=0;entryX=0.433;entryY=0.05;entryDx=0;entryDy=0;entryPerimeter=0;fontColor=#000000;" edge="1" parent="1" source="RMrvw5dMMkh8_IedU6CL-76" target="RMrvw5dMMkh8_IedU6CL-65">
          <mxGeometry relative="1" as="geometry" />
        </mxCell>
        <mxCell id="RMrvw5dMMkh8_IedU6CL-150" style="edgeStyle=none;rounded=0;orthogonalLoop=1;jettySize=auto;html=1;exitX=1;exitY=0.75;exitDx=0;exitDy=0;fontColor=#000000;" edge="1" parent="1" source="RMrvw5dMMkh8_IedU6CL-76">
          <mxGeometry relative="1" as="geometry">
            <mxPoint x="490" y="682.1666666666667" as="targetPoint" />
          </mxGeometry>
        </mxCell>
        <mxCell id="RMrvw5dMMkh8_IedU6CL-76" value="" style="shape=actor;whiteSpace=wrap;html=1;fontColor=#FF3333;" vertex="1" parent="1">
          <mxGeometry x="287.5" y="660" width="25" height="30" as="geometry" />
        </mxCell>
        <mxCell id="RMrvw5dMMkh8_IedU6CL-54" value="自动保存&lt;br&gt;客户信息" style="text;html=1;align=center;verticalAlign=middle;resizable=0;points=[];autosize=1;fillColor=#dae8fc;strokeColor=#6c8ebf;" vertex="1" parent="1">
          <mxGeometry x="270" y="590" width="60" height="30" as="geometry" />
        </mxCell>
        <mxCell id="RMrvw5dMMkh8_IedU6CL-79" style="edgeStyle=none;rounded=0;orthogonalLoop=1;jettySize=auto;html=1;exitX=0.5;exitY=1;exitDx=0;exitDy=0;entryX=0.5;entryY=0;entryDx=0;entryDy=0;fontColor=#000000;" edge="1" parent="1" source="RMrvw5dMMkh8_IedU6CL-46" target="RMrvw5dMMkh8_IedU6CL-54">
          <mxGeometry relative="1" as="geometry">
            <mxPoint x="300" y="569" as="sourcePoint" />
            <mxPoint x="300" y="660" as="targetPoint" />
          </mxGeometry>
        </mxCell>
        <mxCell id="RMrvw5dMMkh8_IedU6CL-101" style="edgeStyle=none;rounded=0;orthogonalLoop=1;jettySize=auto;html=1;exitX=1;exitY=0.75;exitDx=0;exitDy=0;entryX=0.549;entryY=0.985;entryDx=0;entryDy=0;fontColor=#000000;entryPerimeter=0;" edge="1" parent="1" source="RMrvw5dMMkh8_IedU6CL-80" target="RMrvw5dMMkh8_IedU6CL-95">
          <mxGeometry relative="1" as="geometry">
            <Array as="points">
              <mxPoint x="560" y="967" />
            </Array>
          </mxGeometry>
        </mxCell>
        <mxCell id="RMrvw5dMMkh8_IedU6CL-105" style="edgeStyle=none;rounded=0;orthogonalLoop=1;jettySize=auto;html=1;exitX=0.5;exitY=1;exitDx=0;exitDy=0;entryX=0.444;entryY=-0.023;entryDx=0;entryDy=0;entryPerimeter=0;fontColor=#000000;" edge="1" parent="1" source="RMrvw5dMMkh8_IedU6CL-84" target="RMrvw5dMMkh8_IedU6CL-104">
          <mxGeometry relative="1" as="geometry" />
        </mxCell>
        <mxCell id="RMrvw5dMMkh8_IedU6CL-80" value="" style="shape=actor;whiteSpace=wrap;html=1;fontColor=#FF3333;" vertex="1" parent="1">
          <mxGeometry x="427" y="945" width="25" height="29" as="geometry" />
        </mxCell>
        <mxCell id="RMrvw5dMMkh8_IedU6CL-71" value="自动保存&lt;br&gt;客户信息" style="text;html=1;align=center;verticalAlign=middle;resizable=0;points=[];autosize=1;fillColor=#dae8fc;strokeColor=#6c8ebf;" vertex="1" parent="1">
          <mxGeometry x="409.5" y="898" width="60" height="30" as="geometry" />
        </mxCell>
        <mxCell id="RMrvw5dMMkh8_IedU6CL-81" style="edgeStyle=none;rounded=0;orthogonalLoop=1;jettySize=auto;html=1;exitX=0.5;exitY=1;exitDx=0;exitDy=0;fontColor=#000000;entryX=0.5;entryY=0;entryDx=0;entryDy=0;" edge="1" parent="1" source="RMrvw5dMMkh8_IedU6CL-67" target="RMrvw5dMMkh8_IedU6CL-71">
          <mxGeometry relative="1" as="geometry">
            <mxPoint x="175" y="852" as="sourcePoint" />
            <mxPoint x="175" y="943" as="targetPoint" />
          </mxGeometry>
        </mxCell>
        <mxCell id="RMrvw5dMMkh8_IedU6CL-85" value="网络客户" style="text;html=1;align=center;verticalAlign=middle;resizable=0;points=[];autosize=1;fontColor=#000000;" vertex="1" parent="1">
          <mxGeometry x="270" y="690" width="60" height="20" as="geometry" />
        </mxCell>
        <mxCell id="RMrvw5dMMkh8_IedU6CL-92" value="分配指定" style="text;html=1;align=center;verticalAlign=middle;resizable=0;points=[];autosize=1;fillColor=#dae8fc;strokeColor=#6c8ebf;" vertex="1" parent="1">
          <mxGeometry x="275" y="737" width="60" height="20" as="geometry" />
        </mxCell>
        <mxCell id="RMrvw5dMMkh8_IedU6CL-134" style="edgeStyle=none;rounded=0;orthogonalLoop=1;jettySize=auto;html=1;exitX=0;exitY=1;exitDx=0;exitDy=0;fontColor=#000000;" edge="1" parent="1" source="RMrvw5dMMkh8_IedU6CL-95">
          <mxGeometry relative="1" as="geometry">
            <mxPoint x="450" y="960" as="targetPoint" />
            <Array as="points">
              <mxPoint x="510" y="960" />
            </Array>
          </mxGeometry>
        </mxCell>
        <mxCell id="RMrvw5dMMkh8_IedU6CL-95" value="客户公海" style="ellipse;whiteSpace=wrap;html=1;fontColor=#000000;" vertex="1" parent="1">
          <mxGeometry x="492.5" y="643" width="120" height="80" as="geometry" />
        </mxCell>
        <mxCell id="RMrvw5dMMkh8_IedU6CL-97" value="公海获取数据" style="text;html=1;align=center;verticalAlign=middle;resizable=0;points=[];autosize=1;fillColor=#dae8fc;strokeColor=#6c8ebf;" vertex="1" parent="1">
          <mxGeometry x="460" y="770" width="90" height="20" as="geometry" />
        </mxCell>
        <mxCell id="RMrvw5dMMkh8_IedU6CL-99" value="无法转化数据&lt;br&gt;放入公海" style="text;html=1;align=center;verticalAlign=middle;resizable=0;points=[];autosize=1;fillColor=#fff2cc;strokeColor=#d6b656;" vertex="1" parent="1">
          <mxGeometry x="520" y="903" width="90" height="30" as="geometry" />
        </mxCell>
        <mxCell id="RMrvw5dMMkh8_IedU6CL-102" value="系统回收未&lt;br&gt;跟单数据" style="text;html=1;align=center;verticalAlign=middle;resizable=0;points=[];autosize=1;fillColor=#f8cecc;strokeColor=#b85450;" vertex="1" parent="1">
          <mxGeometry x="520" y="852" width="80" height="30" as="geometry" />
        </mxCell>
        <mxCell id="RMrvw5dMMkh8_IedU6CL-140" style="edgeStyle=none;rounded=0;orthogonalLoop=1;jettySize=auto;html=1;exitX=0;exitY=0.5;exitDx=0;exitDy=0;entryX=1;entryY=0.5;entryDx=0;entryDy=0;fontColor=#000000;" edge="1" parent="1" source="RMrvw5dMMkh8_IedU6CL-104" target="RMrvw5dMMkh8_IedU6CL-139">
          <mxGeometry relative="1" as="geometry" />
        </mxCell>
        <mxCell id="RMrvw5dMMkh8_IedU6CL-104" value="联系客户&lt;br&gt;增加跟单记录" style="shape=hexagon;perimeter=hexagonPerimeter2;whiteSpace=wrap;html=1;fixedSize=1;fontColor=#000000;" vertex="1" parent="1">
          <mxGeometry x="399.5" y="1054" width="93" height="50" as="geometry" />
        </mxCell>
        <mxCell id="RMrvw5dMMkh8_IedU6CL-84" value="个人客户" style="text;html=1;align=center;verticalAlign=middle;resizable=0;points=[];autosize=1;fontColor=#000000;" vertex="1" parent="1">
          <mxGeometry x="409.5" y="974" width="60" height="20" as="geometry" />
        </mxCell>
        <mxCell id="RMrvw5dMMkh8_IedU6CL-138" value="&lt;font style=&quot;font-size: 24px&quot; color=&quot;#ff3333&quot;&gt;数据获取&lt;/font&gt;" style="text;html=1;align=center;verticalAlign=middle;resizable=0;points=[];autosize=1;fontColor=#000000;" vertex="1" parent="1">
          <mxGeometry x="10" y="802" width="110" height="20" as="geometry" />
        </mxCell>
        <mxCell id="RMrvw5dMMkh8_IedU6CL-143" style="edgeStyle=none;rounded=0;orthogonalLoop=1;jettySize=auto;html=1;entryX=1;entryY=0.5;entryDx=0;entryDy=0;fontColor=#000000;" edge="1" parent="1" target="RMrvw5dMMkh8_IedU6CL-141">
          <mxGeometry relative="1" as="geometry">
            <mxPoint x="290" y="1079" as="sourcePoint" />
          </mxGeometry>
        </mxCell>
        <mxCell id="RMrvw5dMMkh8_IedU6CL-139" value="&lt;span&gt;邀约到访&lt;/span&gt;" style="rhombus;whiteSpace=wrap;html=1;fontColor=#000000;" vertex="1" parent="1">
          <mxGeometry x="295" y="1058" width="52" height="40" as="geometry" />
        </mxCell>
        <mxCell id="RMrvw5dMMkh8_IedU6CL-147" style="edgeStyle=none;rounded=0;orthogonalLoop=1;jettySize=auto;html=1;exitX=0.5;exitY=1;exitDx=0;exitDy=0;entryX=0.396;entryY=0.008;entryDx=0;entryDy=0;fontColor=#000000;entryPerimeter=0;" edge="1" parent="1" source="RMrvw5dMMkh8_IedU6CL-141" target="RMrvw5dMMkh8_IedU6CL-146">
          <mxGeometry relative="1" as="geometry" />
        </mxCell>
        <mxCell id="RMrvw5dMMkh8_IedU6CL-157" style="edgeStyle=none;rounded=0;orthogonalLoop=1;jettySize=auto;html=1;exitX=0.5;exitY=0;exitDx=0;exitDy=0;fontColor=#000000;entryX=0.5;entryY=1;entryDx=0;entryDy=0;" edge="1" parent="1" target="RMrvw5dMMkh8_IedU6CL-156">
          <mxGeometry relative="1" as="geometry">
            <mxPoint x="164" y="1064" as="sourcePoint" />
            <mxPoint x="167" y="1020" as="targetPoint" />
          </mxGeometry>
        </mxCell>
        <mxCell id="RMrvw5dMMkh8_IedU6CL-141" value="客户到访备案" style="rounded=1;whiteSpace=wrap;html=1;fontColor=#000000;" vertex="1" parent="1">
          <mxGeometry x="117.5" y="1064" width="95" height="30" as="geometry" />
        </mxCell>
        <mxCell id="RMrvw5dMMkh8_IedU6CL-144" value="成功邀约" style="text;html=1;align=center;verticalAlign=middle;resizable=0;points=[];autosize=1;fillColor=#d5e8d4;strokeColor=#82b366;" vertex="1" parent="1">
          <mxGeometry x="227.5" y="1058" width="60" height="20" as="geometry" />
        </mxCell>
        <mxCell id="RMrvw5dMMkh8_IedU6CL-161" style="edgeStyle=none;rounded=0;orthogonalLoop=1;jettySize=auto;html=1;exitX=1;exitY=0.5;exitDx=0;exitDy=0;fontColor=#000000;" edge="1" parent="1" source="RMrvw5dMMkh8_IedU6CL-146">
          <mxGeometry relative="1" as="geometry">
            <mxPoint x="350" y="1209.6666666666667" as="targetPoint" />
          </mxGeometry>
        </mxCell>
        <mxCell id="RMrvw5dMMkh8_IedU6CL-146" value="客户到访列表" style="shape=process;whiteSpace=wrap;html=1;backgroundOutline=1;fontColor=#000000;" vertex="1" parent="1">
          <mxGeometry x="117.5" y="1180" width="120" height="60" as="geometry" />
        </mxCell>
        <mxCell id="RMrvw5dMMkh8_IedU6CL-148" value="备案成功" style="text;html=1;align=center;verticalAlign=middle;resizable=0;points=[];autosize=1;fillColor=#d5e8d4;strokeColor=#82b366;" vertex="1" parent="1">
          <mxGeometry x="135" y="1130" width="60" height="20" as="geometry" />
        </mxCell>
        <mxCell id="RMrvw5dMMkh8_IedU6CL-149" value="&lt;font style=&quot;font-size: 24px&quot; color=&quot;#ff3333&quot;&gt;接待&lt;/font&gt;" style="text;html=1;strokeColor=none;fillColor=none;align=center;verticalAlign=middle;whiteSpace=wrap;rounded=0;fontColor=#000000;" vertex="1" parent="1">
          <mxGeometry x="40" y="1200" width="40" height="20" as="geometry" />
        </mxCell>
        <mxCell id="RMrvw5dMMkh8_IedU6CL-151" value="放入无效数据到公海" style="text;html=1;align=center;verticalAlign=middle;resizable=0;points=[];autosize=1;fontColor=#000000;" vertex="1" parent="1">
          <mxGeometry x="335" y="660" width="120" height="20" as="geometry" />
        </mxCell>
        <mxCell id="RMrvw5dMMkh8_IedU6CL-153" value="转移客户到&lt;br&gt;其他邀约师" style="text;html=1;align=center;verticalAlign=middle;resizable=0;points=[];autosize=1;fillColor=#e1d5e7;strokeColor=#9673a6;" vertex="1" parent="1">
          <mxGeometry x="120" y="740" width="80" height="30" as="geometry" />
        </mxCell>
        <mxCell id="RMrvw5dMMkh8_IedU6CL-156" value="" style="shape=actor;whiteSpace=wrap;html=1;fontColor=#000000;" vertex="1" parent="1">
          <mxGeometry x="150" y="977" width="30" height="26" as="geometry" />
        </mxCell>
        <mxCell id="RMrvw5dMMkh8_IedU6CL-159" value="失败联系&lt;br&gt;管理员处理" style="text;html=1;align=center;verticalAlign=middle;resizable=0;points=[];autosize=1;fillColor=#f8cecc;strokeColor=#b85450;" vertex="1" parent="1">
          <mxGeometry x="125" y="1025" width="80" height="30" as="geometry" />
        </mxCell>
        <mxCell id="RMrvw5dMMkh8_IedU6CL-163" style="edgeStyle=none;rounded=0;orthogonalLoop=1;jettySize=auto;html=1;exitX=1;exitY=0.5;exitDx=0;exitDy=0;entryX=0;entryY=0.5;entryDx=0;entryDy=0;fontColor=#000000;" edge="1" parent="1" source="RMrvw5dMMkh8_IedU6CL-160" target="RMrvw5dMMkh8_IedU6CL-162">
          <mxGeometry relative="1" as="geometry" />
        </mxCell>
        <mxCell id="RMrvw5dMMkh8_IedU6CL-160" value="接待客户" style="rhombus;whiteSpace=wrap;html=1;fontColor=#000000;" vertex="1" parent="1">
          <mxGeometry x="352" y="1185" width="75" height="50" as="geometry" />
        </mxCell>
        <mxCell id="RMrvw5dMMkh8_IedU6CL-162" value="转移信息到咨询" style="rounded=1;whiteSpace=wrap;html=1;fontColor=#000000;" vertex="1" parent="1">
          <mxGeometry x="504" y="1190" width="100" height="40" as="geometry" />
        </mxCell>
      </root>
    </mxGraphModel>
  </diagram>
</mxfile>
